<mxfile host="app.diagrams.net" modified="2021-11-05T17:19:20.503Z" agent="5.0 (Windows NT 10.0; Win64; x64) AppleWebKit/537.36 (KHTML, like Gecko) Chrome/95.0.4638.69 Safari/537.36" etag="phTnf4lmGHlH6LuADekW" version="15.7.0" type="github">
  <diagram id="SluE9JfmMPjYJ1EXBR1Q" name="Page-1">
    <mxGraphModel dx="1278" dy="579" grid="1" gridSize="10" guides="1" tooltips="1" connect="1" arrows="1" fold="1" page="1" pageScale="1" pageWidth="827" pageHeight="1169" math="0" shadow="0">
      <root>
        <mxCell id="0" />
        <mxCell id="1" parent="0" />
        <mxCell id="HP5ziUZP_K-sw0KjSBvC-128" style="edgeStyle=orthogonalEdgeStyle;rounded=0;orthogonalLoop=1;jettySize=auto;html=1;fontSize=14;startArrow=none;startFill=0;endArrow=block;endFill=0;startSize=0;endSize=15;targetPerimeterSpacing=0;strokeWidth=3;align=left;" parent="1" source="HP5ziUZP_K-sw0KjSBvC-13" target="HP5ziUZP_K-sw0KjSBvC-38" edge="1">
          <mxGeometry relative="1" as="geometry">
            <Array as="points">
              <mxPoint x="585" y="930" />
              <mxPoint x="841" y="930" />
            </Array>
          </mxGeometry>
        </mxCell>
        <mxCell id="HP5ziUZP_K-sw0KjSBvC-146" style="edgeStyle=orthogonalEdgeStyle;rounded=0;orthogonalLoop=1;jettySize=auto;html=1;dashed=1;fontSize=10;startArrow=none;startFill=0;endArrow=open;endFill=0;startSize=0;endSize=15;targetPerimeterSpacing=0;strokeWidth=3;align=left;" parent="1" source="HP5ziUZP_K-sw0KjSBvC-13" target="HP5ziUZP_K-sw0KjSBvC-26" edge="1">
          <mxGeometry relative="1" as="geometry">
            <Array as="points">
              <mxPoint x="620" y="970" />
              <mxPoint x="700" y="970" />
            </Array>
          </mxGeometry>
        </mxCell>
        <mxCell id="HP5ziUZP_K-sw0KjSBvC-13" value="Cloud" style="swimlane;fontStyle=1;align=center;verticalAlign=top;childLayout=stackLayout;horizontal=1;startSize=26;horizontalStack=0;resizeParent=1;resizeParentMax=0;resizeLast=0;collapsible=1;marginBottom=0;" parent="1" vertex="1">
          <mxGeometry x="510" y="1000" width="150" height="130" as="geometry" />
        </mxCell>
        <mxCell id="HP5ziUZP_K-sw0KjSBvC-14" value=" " style="text;strokeColor=none;fillColor=none;align=left;verticalAlign=top;spacingLeft=4;spacingRight=4;overflow=hidden;rotatable=0;points=[[0,0.5],[1,0.5]];portConstraint=eastwest;" parent="HP5ziUZP_K-sw0KjSBvC-13" vertex="1">
          <mxGeometry y="26" width="150" height="26" as="geometry" />
        </mxCell>
        <mxCell id="HP5ziUZP_K-sw0KjSBvC-15" value="" style="line;strokeWidth=1;fillColor=none;align=left;verticalAlign=middle;spacingTop=-1;spacingLeft=3;spacingRight=3;rotatable=0;labelPosition=right;points=[];portConstraint=eastwest;" parent="HP5ziUZP_K-sw0KjSBvC-13" vertex="1">
          <mxGeometry y="52" width="150" height="8" as="geometry" />
        </mxCell>
        <mxCell id="HP5ziUZP_K-sw0KjSBvC-16" value="+ Cloud(LoaderParams*)&#xa;+ draw(): void&#xa;+ update(): void&#xa;+ clean(): void" style="text;strokeColor=none;fillColor=none;align=left;verticalAlign=top;spacingLeft=4;spacingRight=4;overflow=hidden;rotatable=0;points=[[0,0.5],[1,0.5]];portConstraint=eastwest;" parent="HP5ziUZP_K-sw0KjSBvC-13" vertex="1">
          <mxGeometry y="60" width="150" height="70" as="geometry" />
        </mxCell>
        <mxCell id="HP5ziUZP_K-sw0KjSBvC-136" style="edgeStyle=orthogonalEdgeStyle;rounded=0;orthogonalLoop=1;jettySize=auto;html=1;fontSize=12;startArrow=none;startFill=0;endArrow=open;endFill=0;startSize=0;endSize=15;targetPerimeterSpacing=0;strokeWidth=3;align=left;dashed=1;" parent="1" source="HP5ziUZP_K-sw0KjSBvC-22" target="HP5ziUZP_K-sw0KjSBvC-26" edge="1">
          <mxGeometry relative="1" as="geometry" />
        </mxCell>
        <mxCell id="HP5ziUZP_K-sw0KjSBvC-22" value="&lt;&lt;abstract&gt;&gt;&#xa;GameObject" style="swimlane;fontStyle=1;align=center;verticalAlign=middle;childLayout=stackLayout;horizontal=1;startSize=26;horizontalStack=0;resizeParent=1;resizeParentMax=0;resizeLast=0;collapsible=1;marginBottom=0;fontSize=12;spacing=2;spacingTop=0;" parent="1" vertex="1">
          <mxGeometry x="746.88" y="360" width="187.5" height="150" as="geometry">
            <mxRectangle x="746.88" y="360" width="110" height="40" as="alternateBounds" />
          </mxGeometry>
        </mxCell>
        <mxCell id="HP5ziUZP_K-sw0KjSBvC-23" value=" " style="text;align=left;verticalAlign=top;spacingLeft=4;spacingRight=4;overflow=hidden;rotatable=0;points=[[0,0.5],[1,0.5]];portConstraint=eastwest;" parent="HP5ziUZP_K-sw0KjSBvC-22" vertex="1">
          <mxGeometry y="26" width="187.5" height="26" as="geometry" />
        </mxCell>
        <mxCell id="HP5ziUZP_K-sw0KjSBvC-24" value="" style="line;strokeWidth=1;fillColor=none;align=left;verticalAlign=middle;spacingTop=-1;spacingLeft=3;spacingRight=3;rotatable=0;labelPosition=right;points=[];portConstraint=eastwest;" parent="HP5ziUZP_K-sw0KjSBvC-22" vertex="1">
          <mxGeometry y="52" width="187.5" height="8" as="geometry" />
        </mxCell>
        <mxCell id="HP5ziUZP_K-sw0KjSBvC-25" value="+ ~GameObject()&#xa;+ draw(): void&#xa;+ update(): void&#xa;+ clean(): void&#xa;# GameObject(LoaderParams*)" style="text;strokeColor=none;fillColor=none;align=left;verticalAlign=top;spacingLeft=4;spacingRight=4;overflow=hidden;rotatable=0;points=[[0,0.5],[1,0.5]];portConstraint=eastwest;fontSize=12;" parent="HP5ziUZP_K-sw0KjSBvC-22" vertex="1">
          <mxGeometry y="60" width="187.5" height="90" as="geometry" />
        </mxCell>
        <mxCell id="HP5ziUZP_K-sw0KjSBvC-26" value="LoaderParams" style="swimlane;fontStyle=1;align=center;verticalAlign=top;childLayout=stackLayout;horizontal=1;startSize=26;horizontalStack=0;resizeParent=1;resizeParentMax=0;resizeLast=0;collapsible=1;marginBottom=0;" parent="1" vertex="1">
          <mxGeometry x="660" y="40" width="360" height="220" as="geometry" />
        </mxCell>
        <mxCell id="HP5ziUZP_K-sw0KjSBvC-27" value="- m_x: int&#xa;- m_y: int&#xa;- m_width: int&#xa;- m_height: int&#xa;- m_textureID: string" style="text;strokeColor=none;fillColor=none;align=left;verticalAlign=top;spacingLeft=4;spacingRight=4;overflow=hidden;rotatable=0;points=[[0,0.5],[1,0.5]];portConstraint=eastwest;" parent="HP5ziUZP_K-sw0KjSBvC-26" vertex="1">
          <mxGeometry y="26" width="360" height="84" as="geometry" />
        </mxCell>
        <mxCell id="HP5ziUZP_K-sw0KjSBvC-28" value="" style="line;strokeWidth=1;fillColor=none;align=left;verticalAlign=middle;spacingTop=-1;spacingLeft=3;spacingRight=3;rotatable=0;labelPosition=right;points=[];portConstraint=eastwest;" parent="HP5ziUZP_K-sw0KjSBvC-26" vertex="1">
          <mxGeometry y="110" width="360" height="8" as="geometry" />
        </mxCell>
        <mxCell id="HP5ziUZP_K-sw0KjSBvC-29" value="+ LoaderParams(int, int, int, int, string)&#xa;+ getX(): int&#xa;+ getY(): int&#xa;+ getWidth(): int&#xa;+ getHeight(): int&#xa;+ getTextureID(): string" style="text;strokeColor=none;fillColor=none;align=left;verticalAlign=top;spacingLeft=4;spacingRight=4;overflow=hidden;rotatable=0;points=[[0,0.5],[1,0.5]];portConstraint=eastwest;" parent="HP5ziUZP_K-sw0KjSBvC-26" vertex="1">
          <mxGeometry y="118" width="360" height="102" as="geometry" />
        </mxCell>
        <mxCell id="HP5ziUZP_K-sw0KjSBvC-122" style="edgeStyle=orthogonalEdgeStyle;rounded=0;orthogonalLoop=1;jettySize=auto;html=1;fontSize=14;startArrow=none;startFill=0;endArrow=block;endFill=0;startSize=0;endSize=15;targetPerimeterSpacing=0;strokeWidth=3;align=left;" parent="1" source="HP5ziUZP_K-sw0KjSBvC-34" target="HP5ziUZP_K-sw0KjSBvC-38" edge="1">
          <mxGeometry relative="1" as="geometry" />
        </mxCell>
        <mxCell id="HP5ziUZP_K-sw0KjSBvC-148" style="edgeStyle=orthogonalEdgeStyle;rounded=0;orthogonalLoop=1;jettySize=auto;html=1;dashed=1;fontSize=10;startArrow=none;startFill=0;endArrow=open;endFill=0;startSize=0;endSize=15;targetPerimeterSpacing=0;strokeWidth=3;align=left;" parent="1" source="HP5ziUZP_K-sw0KjSBvC-34" target="HP5ziUZP_K-sw0KjSBvC-26" edge="1">
          <mxGeometry relative="1" as="geometry">
            <Array as="points">
              <mxPoint x="800" y="970" />
              <mxPoint x="700" y="970" />
            </Array>
          </mxGeometry>
        </mxCell>
        <mxCell id="HP5ziUZP_K-sw0KjSBvC-156" style="edgeStyle=orthogonalEdgeStyle;rounded=0;orthogonalLoop=1;jettySize=auto;html=1;dashed=1;fontSize=10;startArrow=none;startFill=0;endArrow=open;endFill=0;startSize=0;endSize=15;targetPerimeterSpacing=0;strokeWidth=3;align=left;" parent="1" source="HP5ziUZP_K-sw0KjSBvC-34" target="HP5ziUZP_K-sw0KjSBvC-115" edge="1">
          <mxGeometry relative="1" as="geometry" />
        </mxCell>
        <mxCell id="HP5ziUZP_K-sw0KjSBvC-34" value="Player" style="swimlane;fontStyle=1;align=center;verticalAlign=top;childLayout=stackLayout;horizontal=1;startSize=26;horizontalStack=0;resizeParent=1;resizeParentMax=0;resizeLast=0;collapsible=1;marginBottom=0;" parent="1" vertex="1">
          <mxGeometry x="765.95" y="1000" width="149.37" height="140" as="geometry" />
        </mxCell>
        <mxCell id="HP5ziUZP_K-sw0KjSBvC-35" value="- flip: SDL_RendererFlip" style="text;strokeColor=none;fillColor=none;align=left;verticalAlign=top;spacingLeft=4;spacingRight=4;overflow=hidden;rotatable=0;points=[[0,0.5],[1,0.5]];portConstraint=eastwest;" parent="HP5ziUZP_K-sw0KjSBvC-34" vertex="1">
          <mxGeometry y="26" width="149.37" height="26" as="geometry" />
        </mxCell>
        <mxCell id="HP5ziUZP_K-sw0KjSBvC-36" value="" style="line;strokeWidth=1;fillColor=none;align=left;verticalAlign=middle;spacingTop=-1;spacingLeft=3;spacingRight=3;rotatable=0;labelPosition=right;points=[];portConstraint=eastwest;" parent="HP5ziUZP_K-sw0KjSBvC-34" vertex="1">
          <mxGeometry y="52" width="149.37" height="8" as="geometry" />
        </mxCell>
        <mxCell id="HP5ziUZP_K-sw0KjSBvC-37" value="+ Player(LoaderParams*)&#xa;+ draw(): void&#xa;+ update(): void&#xa;+ handleInput(): void&#xa;+ clean(): void" style="text;strokeColor=none;fillColor=none;align=left;verticalAlign=top;spacingLeft=4;spacingRight=4;overflow=hidden;rotatable=0;points=[[0,0.5],[1,0.5]];portConstraint=eastwest;" parent="HP5ziUZP_K-sw0KjSBvC-34" vertex="1">
          <mxGeometry y="60" width="149.37" height="80" as="geometry" />
        </mxCell>
        <mxCell id="HP5ziUZP_K-sw0KjSBvC-74" style="edgeStyle=orthogonalEdgeStyle;rounded=0;orthogonalLoop=1;jettySize=auto;html=1;startArrow=none;startFill=0;endArrow=block;endFill=0;targetPerimeterSpacing=0;strokeWidth=3;dashed=1;startSize=0;endSize=15;align=left;" parent="1" source="HP5ziUZP_K-sw0KjSBvC-38" target="HP5ziUZP_K-sw0KjSBvC-22" edge="1">
          <mxGeometry relative="1" as="geometry" />
        </mxCell>
        <mxCell id="HP5ziUZP_K-sw0KjSBvC-125" value="&lt;font style=&quot;font-size: 10px&quot;&gt;# m_position&lt;br&gt;# m_velocity&lt;br&gt;# m_acceleration&lt;/font&gt;" style="edgeStyle=orthogonalEdgeStyle;rounded=0;orthogonalLoop=1;jettySize=auto;html=1;fontSize=14;startArrow=none;startFill=0;endArrow=open;endFill=0;startSize=0;endSize=15;targetPerimeterSpacing=0;strokeWidth=3;align=left;" parent="1" source="HP5ziUZP_K-sw0KjSBvC-38" target="HP5ziUZP_K-sw0KjSBvC-54" edge="1">
          <mxGeometry x="0.8832" y="-38" relative="1" as="geometry">
            <mxPoint as="offset" />
          </mxGeometry>
        </mxCell>
        <mxCell id="HP5ziUZP_K-sw0KjSBvC-138" style="edgeStyle=orthogonalEdgeStyle;rounded=0;orthogonalLoop=1;jettySize=auto;html=1;dashed=1;fontSize=10;startArrow=none;startFill=0;endArrow=open;endFill=0;startSize=0;endSize=15;targetPerimeterSpacing=0;strokeWidth=3;align=left;" parent="1" source="HP5ziUZP_K-sw0KjSBvC-38" target="HP5ziUZP_K-sw0KjSBvC-26" edge="1">
          <mxGeometry relative="1" as="geometry">
            <Array as="points">
              <mxPoint x="980" y="430" />
              <mxPoint x="980" y="430" />
            </Array>
          </mxGeometry>
        </mxCell>
        <mxCell id="HP5ziUZP_K-sw0KjSBvC-141" style="edgeStyle=orthogonalEdgeStyle;rounded=0;orthogonalLoop=1;jettySize=auto;html=1;dashed=1;fontSize=10;startArrow=none;startFill=0;endArrow=open;endFill=0;startSize=0;endSize=15;targetPerimeterSpacing=0;strokeWidth=3;align=left;" parent="1" source="HP5ziUZP_K-sw0KjSBvC-38" target="HP5ziUZP_K-sw0KjSBvC-50" edge="1">
          <mxGeometry relative="1" as="geometry">
            <Array as="points">
              <mxPoint x="980" y="708" />
              <mxPoint x="980" y="315" />
            </Array>
          </mxGeometry>
        </mxCell>
        <mxCell id="HP5ziUZP_K-sw0KjSBvC-160" style="edgeStyle=orthogonalEdgeStyle;rounded=0;orthogonalLoop=1;jettySize=auto;html=1;dashed=1;fontSize=10;startArrow=none;startFill=0;endArrow=open;endFill=0;startSize=0;endSize=15;targetPerimeterSpacing=0;strokeWidth=3;align=left;" parent="1" source="HP5ziUZP_K-sw0KjSBvC-38" target="HP5ziUZP_K-sw0KjSBvC-17" edge="1">
          <mxGeometry relative="1" as="geometry">
            <Array as="points">
              <mxPoint x="980" y="708" />
              <mxPoint x="980" y="670" />
            </Array>
          </mxGeometry>
        </mxCell>
        <mxCell id="HP5ziUZP_K-sw0KjSBvC-38" value="SDLGameObject" style="swimlane;fontStyle=1;align=center;verticalAlign=top;childLayout=stackLayout;horizontal=1;startSize=26;horizontalStack=0;resizeParent=1;resizeParentMax=0;resizeLast=0;collapsible=1;marginBottom=0;" parent="1" vertex="1">
          <mxGeometry x="731.26" y="608" width="218.75" height="200" as="geometry" />
        </mxCell>
        <mxCell id="HP5ziUZP_K-sw0KjSBvC-39" value="# m_width: int&#xa;# m_height: int&#xa;# m_currentRow: int&#xa;# m_currentFrame: int&#xa;# m_m_textureID: string" style="text;strokeColor=none;fillColor=none;align=left;verticalAlign=top;spacingLeft=4;spacingRight=4;overflow=hidden;rotatable=0;points=[[0,0.5],[1,0.5]];portConstraint=eastwest;" parent="HP5ziUZP_K-sw0KjSBvC-38" vertex="1">
          <mxGeometry y="26" width="218.75" height="84" as="geometry" />
        </mxCell>
        <mxCell id="HP5ziUZP_K-sw0KjSBvC-40" value="" style="line;strokeWidth=1;fillColor=none;align=left;verticalAlign=middle;spacingTop=-1;spacingLeft=3;spacingRight=3;rotatable=0;labelPosition=right;points=[];portConstraint=eastwest;" parent="HP5ziUZP_K-sw0KjSBvC-38" vertex="1">
          <mxGeometry y="110" width="218.75" height="8" as="geometry" />
        </mxCell>
        <mxCell id="HP5ziUZP_K-sw0KjSBvC-41" value="+ SDLGameObject(LoaderParams*)&#xa;+ ~SDLGameObject()&#xa;+ draw(SDL_RendererFlip, float): void&#xa;+ update(): void&#xa;+ clean(): void" style="text;strokeColor=none;fillColor=none;align=left;verticalAlign=top;spacingLeft=4;spacingRight=4;overflow=hidden;rotatable=0;points=[[0,0.5],[1,0.5]];portConstraint=eastwest;" parent="HP5ziUZP_K-sw0KjSBvC-38" vertex="1">
          <mxGeometry y="118" width="218.75" height="82" as="geometry" />
        </mxCell>
        <mxCell id="HP5ziUZP_K-sw0KjSBvC-131" style="edgeStyle=orthogonalEdgeStyle;rounded=0;orthogonalLoop=1;jettySize=auto;html=1;fontSize=14;startArrow=none;startFill=0;endArrow=block;endFill=0;startSize=0;endSize=15;targetPerimeterSpacing=0;strokeWidth=3;align=left;" parent="1" source="HP5ziUZP_K-sw0KjSBvC-42" target="HP5ziUZP_K-sw0KjSBvC-38" edge="1">
          <mxGeometry relative="1" as="geometry">
            <Array as="points">
              <mxPoint x="1320" y="930" />
              <mxPoint x="841" y="930" />
            </Array>
          </mxGeometry>
        </mxCell>
        <mxCell id="HP5ziUZP_K-sw0KjSBvC-153" style="edgeStyle=orthogonalEdgeStyle;rounded=0;orthogonalLoop=1;jettySize=auto;html=1;dashed=1;fontSize=10;startArrow=none;startFill=0;endArrow=none;endFill=0;startSize=0;endSize=15;targetPerimeterSpacing=0;strokeWidth=3;align=left;" parent="1" source="HP5ziUZP_K-sw0KjSBvC-42" edge="1">
          <mxGeometry relative="1" as="geometry">
            <mxPoint x="1040" y="970" as="targetPoint" />
            <Array as="points">
              <mxPoint x="1280" y="970" />
            </Array>
          </mxGeometry>
        </mxCell>
        <mxCell id="HP5ziUZP_K-sw0KjSBvC-42" value="Sun" style="swimlane;fontStyle=1;align=center;verticalAlign=top;childLayout=stackLayout;horizontal=1;startSize=26;horizontalStack=0;resizeParent=1;resizeParentMax=0;resizeLast=0;collapsible=1;marginBottom=0;" parent="1" vertex="1">
          <mxGeometry x="1250" y="1000" width="140" height="150" as="geometry" />
        </mxCell>
        <mxCell id="HP5ziUZP_K-sw0KjSBvC-43" value="- rotation: float&#xa;- rotationVelocity: float" style="text;strokeColor=none;fillColor=none;align=left;verticalAlign=top;spacingLeft=4;spacingRight=4;overflow=hidden;rotatable=0;points=[[0,0.5],[1,0.5]];portConstraint=eastwest;" parent="HP5ziUZP_K-sw0KjSBvC-42" vertex="1">
          <mxGeometry y="26" width="140" height="44" as="geometry" />
        </mxCell>
        <mxCell id="HP5ziUZP_K-sw0KjSBvC-44" value="" style="line;strokeWidth=1;fillColor=none;align=left;verticalAlign=middle;spacingTop=-1;spacingLeft=3;spacingRight=3;rotatable=0;labelPosition=right;points=[];portConstraint=eastwest;" parent="HP5ziUZP_K-sw0KjSBvC-42" vertex="1">
          <mxGeometry y="70" width="140" height="8" as="geometry" />
        </mxCell>
        <mxCell id="HP5ziUZP_K-sw0KjSBvC-45" value="+ Sun(LoaderParams*)&#xa;+ draw(): void&#xa;+ update(): void&#xa;+ clean(): void" style="text;strokeColor=none;fillColor=none;align=left;verticalAlign=top;spacingLeft=4;spacingRight=4;overflow=hidden;rotatable=0;points=[[0,0.5],[1,0.5]];portConstraint=eastwest;" parent="HP5ziUZP_K-sw0KjSBvC-42" vertex="1">
          <mxGeometry y="78" width="140" height="72" as="geometry" />
        </mxCell>
        <mxCell id="HP5ziUZP_K-sw0KjSBvC-130" style="edgeStyle=orthogonalEdgeStyle;rounded=0;orthogonalLoop=1;jettySize=auto;html=1;fontSize=14;startArrow=none;startFill=0;endArrow=block;endFill=0;startSize=0;endSize=15;targetPerimeterSpacing=0;strokeWidth=3;align=left;" parent="1" source="HP5ziUZP_K-sw0KjSBvC-46" target="HP5ziUZP_K-sw0KjSBvC-38" edge="1">
          <mxGeometry relative="1" as="geometry">
            <Array as="points">
              <mxPoint x="1080" y="930" />
              <mxPoint x="841" y="930" />
            </Array>
          </mxGeometry>
        </mxCell>
        <mxCell id="HP5ziUZP_K-sw0KjSBvC-152" style="edgeStyle=orthogonalEdgeStyle;rounded=0;orthogonalLoop=1;jettySize=auto;html=1;dashed=1;fontSize=10;startArrow=none;startFill=0;endArrow=none;endFill=0;startSize=0;endSize=15;targetPerimeterSpacing=0;strokeWidth=3;align=left;" parent="1" source="HP5ziUZP_K-sw0KjSBvC-46" edge="1">
          <mxGeometry relative="1" as="geometry">
            <mxPoint x="800" y="970" as="targetPoint" />
            <Array as="points">
              <mxPoint x="1040" y="970" />
            </Array>
          </mxGeometry>
        </mxCell>
        <mxCell id="HP5ziUZP_K-sw0KjSBvC-46" value="Star" style="swimlane;fontStyle=1;align=center;verticalAlign=top;childLayout=stackLayout;horizontal=1;startSize=26;horizontalStack=0;resizeParent=1;resizeParentMax=0;resizeLast=0;collapsible=1;marginBottom=0;" parent="1" vertex="1">
          <mxGeometry x="1010" y="1000" width="140" height="130" as="geometry" />
        </mxCell>
        <mxCell id="HP5ziUZP_K-sw0KjSBvC-47" value=" " style="text;strokeColor=none;fillColor=none;align=left;verticalAlign=top;spacingLeft=4;spacingRight=4;overflow=hidden;rotatable=0;points=[[0,0.5],[1,0.5]];portConstraint=eastwest;" parent="HP5ziUZP_K-sw0KjSBvC-46" vertex="1">
          <mxGeometry y="26" width="140" height="26" as="geometry" />
        </mxCell>
        <mxCell id="HP5ziUZP_K-sw0KjSBvC-48" value="" style="line;strokeWidth=1;fillColor=none;align=left;verticalAlign=middle;spacingTop=-1;spacingLeft=3;spacingRight=3;rotatable=0;labelPosition=right;points=[];portConstraint=eastwest;" parent="HP5ziUZP_K-sw0KjSBvC-46" vertex="1">
          <mxGeometry y="52" width="140" height="8" as="geometry" />
        </mxCell>
        <mxCell id="HP5ziUZP_K-sw0KjSBvC-49" value="+ Star(LoaderParams*)&#xa;+ draw(): void&#xa;+ update(): void&#xa;+ clean(): void" style="text;strokeColor=none;fillColor=none;align=left;verticalAlign=top;spacingLeft=4;spacingRight=4;overflow=hidden;rotatable=0;points=[[0,0.5],[1,0.5]];portConstraint=eastwest;" parent="HP5ziUZP_K-sw0KjSBvC-46" vertex="1">
          <mxGeometry y="60" width="140" height="70" as="geometry" />
        </mxCell>
        <mxCell id="HP5ziUZP_K-sw0KjSBvC-50" value="TextureManager" style="swimlane;fontStyle=1;align=center;verticalAlign=top;childLayout=stackLayout;horizontal=1;startSize=26;horizontalStack=0;resizeParent=1;resizeParentMax=0;resizeLast=0;collapsible=1;marginBottom=0;" parent="1" vertex="1">
          <mxGeometry x="1120" y="240" width="488.75" height="150" as="geometry" />
        </mxCell>
        <mxCell id="HP5ziUZP_K-sw0KjSBvC-51" value="- s_pInstance: TextureManager*&#xa;- m_textureMap: map&lt;string, SDL_Texture*&gt;" style="text;strokeColor=none;fillColor=none;align=left;verticalAlign=top;spacingLeft=4;spacingRight=4;overflow=hidden;rotatable=0;points=[[0,0.5],[1,0.5]];portConstraint=eastwest;" parent="HP5ziUZP_K-sw0KjSBvC-50" vertex="1">
          <mxGeometry y="26" width="488.75" height="34" as="geometry" />
        </mxCell>
        <mxCell id="HP5ziUZP_K-sw0KjSBvC-52" value="" style="line;strokeWidth=1;fillColor=none;align=left;verticalAlign=middle;spacingTop=-1;spacingLeft=3;spacingRight=3;rotatable=0;labelPosition=right;points=[];portConstraint=eastwest;" parent="HP5ziUZP_K-sw0KjSBvC-50" vertex="1">
          <mxGeometry y="60" width="488.75" height="8" as="geometry" />
        </mxCell>
        <mxCell id="HP5ziUZP_K-sw0KjSBvC-53" value="- TextureManager()&#xa;+ Instance(): TextureManager*&#xa;+ ~TextureManager()&#xa;+ load(string, string, SDL_Renderer*): bool&#xa;+ drawFrame(string, int, int, int, int, int, int, SDL_Renderer*, SDL_RendererFlip, float): void" style="text;strokeColor=none;fillColor=none;align=left;verticalAlign=top;spacingLeft=4;spacingRight=4;overflow=hidden;rotatable=0;points=[[0,0.5],[1,0.5]];portConstraint=eastwest;" parent="HP5ziUZP_K-sw0KjSBvC-50" vertex="1">
          <mxGeometry y="68" width="488.75" height="82" as="geometry" />
        </mxCell>
        <mxCell id="HP5ziUZP_K-sw0KjSBvC-54" value="Vector2D" style="swimlane;fontStyle=1;align=center;verticalAlign=top;childLayout=stackLayout;horizontal=1;startSize=26;horizontalStack=0;resizeParent=1;resizeParentMax=0;resizeLast=0;collapsible=1;marginBottom=0;" parent="1" vertex="1">
          <mxGeometry x="260" y="558" width="300" height="300" as="geometry" />
        </mxCell>
        <mxCell id="HP5ziUZP_K-sw0KjSBvC-55" value="- m_x: float&#xa;- m_y: float " style="text;strokeColor=none;fillColor=none;align=left;verticalAlign=top;spacingLeft=4;spacingRight=4;overflow=hidden;rotatable=0;points=[[0,0.5],[1,0.5]];portConstraint=eastwest;" parent="HP5ziUZP_K-sw0KjSBvC-54" vertex="1">
          <mxGeometry y="26" width="300" height="44" as="geometry" />
        </mxCell>
        <mxCell id="HP5ziUZP_K-sw0KjSBvC-56" value="" style="line;strokeWidth=1;fillColor=none;align=left;verticalAlign=middle;spacingTop=-1;spacingLeft=3;spacingRight=3;rotatable=0;labelPosition=right;points=[];portConstraint=eastwest;" parent="HP5ziUZP_K-sw0KjSBvC-54" vertex="1">
          <mxGeometry y="70" width="300" height="8" as="geometry" />
        </mxCell>
        <mxCell id="HP5ziUZP_K-sw0KjSBvC-57" value="+ Vector2D(float, float)&#xa;+ getX(): float&#xa;+ getY(): float&#xa;+ setX(float): void&#xa;+ setY(float): void&#xa;+ normalize(): void&#xa;+ length(): float&#xa;+ operator+(const Vector2D&amp;): Vector2D&#xa;+ operator-(const Vector2D&amp;): Vector2D&#xa;+ operator*(float): Vector2D&#xa;+ operator/(float): Vector2D&#xa;+ operator+=(Vector2D&amp;, const Vector2D&amp;): Vector2D&#xa;+ operator-=(Vector2D&amp;, const Vector2D&amp;): Vector2D&#xa;+ operator*=(float): Vector2D&#xa;+ operator/=(float): Vector2D" style="text;strokeColor=none;fillColor=none;align=left;verticalAlign=top;spacingLeft=4;spacingRight=4;overflow=hidden;rotatable=0;points=[[0,0.5],[1,0.5]];portConstraint=eastwest;" parent="HP5ziUZP_K-sw0KjSBvC-54" vertex="1">
          <mxGeometry y="78" width="300" height="222" as="geometry" />
        </mxCell>
        <mxCell id="HP5ziUZP_K-sw0KjSBvC-120" style="edgeStyle=orthogonalEdgeStyle;rounded=0;orthogonalLoop=1;jettySize=auto;html=1;fontSize=14;startArrow=none;startFill=0;endArrow=block;endFill=0;startSize=0;endSize=15;targetPerimeterSpacing=0;strokeWidth=3;align=left;" parent="1" source="HP5ziUZP_K-sw0KjSBvC-6" target="HP5ziUZP_K-sw0KjSBvC-38" edge="1">
          <mxGeometry relative="1" as="geometry">
            <Array as="points">
              <mxPoint x="325" y="930" />
              <mxPoint x="841" y="930" />
            </Array>
          </mxGeometry>
        </mxCell>
        <mxCell id="HP5ziUZP_K-sw0KjSBvC-143" style="edgeStyle=orthogonalEdgeStyle;rounded=0;orthogonalLoop=1;jettySize=auto;html=1;dashed=1;fontSize=10;startArrow=none;startFill=0;endArrow=open;endFill=0;startSize=0;endSize=15;targetPerimeterSpacing=0;strokeWidth=3;align=left;" parent="1" source="HP5ziUZP_K-sw0KjSBvC-6" target="HP5ziUZP_K-sw0KjSBvC-26" edge="1">
          <mxGeometry relative="1" as="geometry">
            <Array as="points">
              <mxPoint x="370" y="970" />
              <mxPoint x="700" y="970" />
            </Array>
          </mxGeometry>
        </mxCell>
        <mxCell id="HP5ziUZP_K-sw0KjSBvC-155" style="edgeStyle=orthogonalEdgeStyle;rounded=0;orthogonalLoop=1;jettySize=auto;html=1;fontSize=10;startArrow=none;startFill=0;endArrow=open;endFill=0;startSize=0;endSize=15;targetPerimeterSpacing=0;strokeWidth=3;align=left;dashed=1;" parent="1" source="HP5ziUZP_K-sw0KjSBvC-6" target="HP5ziUZP_K-sw0KjSBvC-38" edge="1">
          <mxGeometry relative="1" as="geometry">
            <Array as="points">
              <mxPoint x="370" y="970" />
              <mxPoint x="700" y="970" />
              <mxPoint x="700" y="850" />
              <mxPoint x="780" y="850" />
            </Array>
          </mxGeometry>
        </mxCell>
        <mxCell id="HP5ziUZP_K-sw0KjSBvC-6" value="Background" style="swimlane;fontStyle=1;align=center;verticalAlign=top;childLayout=stackLayout;horizontal=1;startSize=26;horizontalStack=0;resizeParent=1;resizeParentMax=0;resizeLast=0;collapsible=1;marginBottom=0;" parent="1" vertex="1">
          <mxGeometry x="234" y="1000" width="180" height="130" as="geometry">
            <mxRectangle y="26" width="160" height="26" as="alternateBounds" />
          </mxGeometry>
        </mxCell>
        <mxCell id="HP5ziUZP_K-sw0KjSBvC-7" value=" " style="text;strokeColor=none;fillColor=none;align=left;verticalAlign=top;spacingLeft=4;spacingRight=4;overflow=hidden;rotatable=0;points=[[0,0.5],[1,0.5]];portConstraint=eastwest;" parent="HP5ziUZP_K-sw0KjSBvC-6" vertex="1">
          <mxGeometry y="26" width="180" height="26" as="geometry" />
        </mxCell>
        <mxCell id="HP5ziUZP_K-sw0KjSBvC-8" value="" style="line;strokeWidth=1;fillColor=none;align=left;verticalAlign=middle;spacingTop=-1;spacingLeft=3;spacingRight=3;rotatable=0;labelPosition=right;points=[];portConstraint=eastwest;" parent="HP5ziUZP_K-sw0KjSBvC-6" vertex="1">
          <mxGeometry y="52" width="180" height="8" as="geometry" />
        </mxCell>
        <mxCell id="HP5ziUZP_K-sw0KjSBvC-9" value="+ Background(LoaderParams*)&#xa;+ draw(): void&#xa;+ update(): void&#xa;+ clean(): void" style="text;strokeColor=none;fillColor=none;align=left;verticalAlign=top;spacingLeft=4;spacingRight=4;overflow=hidden;rotatable=0;points=[[0,0.5],[1,0.5]];portConstraint=eastwest;" parent="HP5ziUZP_K-sw0KjSBvC-6" vertex="1">
          <mxGeometry y="60" width="180" height="70" as="geometry" />
        </mxCell>
        <mxCell id="HP5ziUZP_K-sw0KjSBvC-159" style="edgeStyle=orthogonalEdgeStyle;rounded=0;orthogonalLoop=1;jettySize=auto;html=1;dashed=1;fontSize=10;startArrow=none;startFill=0;endArrow=open;endFill=0;startSize=0;endSize=15;targetPerimeterSpacing=0;strokeWidth=3;align=left;" parent="1" source="HP5ziUZP_K-sw0KjSBvC-115" target="HP5ziUZP_K-sw0KjSBvC-17" edge="1">
          <mxGeometry relative="1" as="geometry" />
        </mxCell>
        <mxCell id="HP5ziUZP_K-sw0KjSBvC-115" value="InputHandler" style="swimlane;fontStyle=1;align=center;verticalAlign=top;childLayout=stackLayout;horizontal=1;startSize=26;horizontalStack=0;resizeParent=1;resizeParentMax=0;resizeLast=0;collapsible=1;marginBottom=0;" parent="1" vertex="1">
          <mxGeometry x="735.64" y="1260" width="210" height="180" as="geometry" />
        </mxCell>
        <mxCell id="HP5ziUZP_K-sw0KjSBvC-116" value="- s_pInstance: InputHandler*&#xa;- m_keystates: Uint8*" style="text;strokeColor=none;fillColor=none;align=left;verticalAlign=top;spacingLeft=4;spacingRight=4;overflow=hidden;rotatable=0;points=[[0,0.5],[1,0.5]];portConstraint=eastwest;" parent="HP5ziUZP_K-sw0KjSBvC-115" vertex="1">
          <mxGeometry y="26" width="210" height="44" as="geometry" />
        </mxCell>
        <mxCell id="HP5ziUZP_K-sw0KjSBvC-117" value="" style="line;strokeWidth=1;fillColor=none;align=left;verticalAlign=middle;spacingTop=-1;spacingLeft=3;spacingRight=3;rotatable=0;labelPosition=right;points=[];portConstraint=eastwest;" parent="HP5ziUZP_K-sw0KjSBvC-115" vertex="1">
          <mxGeometry y="70" width="210" height="8" as="geometry" />
        </mxCell>
        <mxCell id="HP5ziUZP_K-sw0KjSBvC-118" value="- InputHandler()&#xa;+ Instance(): InputHandler*&#xa;+ ~InputHandler()&#xa;+ isKeyDown(SDL_Scancode): bool&#xa;+ update(): void&#xa;+ clean(): void&#xa;" style="text;strokeColor=none;fillColor=none;align=left;verticalAlign=top;spacingLeft=4;spacingRight=4;overflow=hidden;rotatable=0;points=[[0,0.5],[1,0.5]];portConstraint=eastwest;" parent="HP5ziUZP_K-sw0KjSBvC-115" vertex="1">
          <mxGeometry y="78" width="210" height="102" as="geometry" />
        </mxCell>
        <mxCell id="HP5ziUZP_K-sw0KjSBvC-161" style="edgeStyle=orthogonalEdgeStyle;rounded=0;orthogonalLoop=1;jettySize=auto;html=1;dashed=1;fontSize=10;startArrow=none;startFill=0;endArrow=open;endFill=0;startSize=0;endSize=15;targetPerimeterSpacing=0;strokeWidth=3;align=left;" parent="1" source="HP5ziUZP_K-sw0KjSBvC-17" target="HP5ziUZP_K-sw0KjSBvC-50" edge="1">
          <mxGeometry relative="1" as="geometry" />
        </mxCell>
        <mxCell id="HP5ziUZP_K-sw0KjSBvC-162" style="edgeStyle=orthogonalEdgeStyle;rounded=0;orthogonalLoop=1;jettySize=auto;html=1;dashed=1;fontSize=10;startArrow=none;startFill=0;endArrow=open;endFill=0;startSize=0;endSize=15;targetPerimeterSpacing=0;strokeWidth=3;align=left;" parent="1" source="HP5ziUZP_K-sw0KjSBvC-17" target="HP5ziUZP_K-sw0KjSBvC-115" edge="1">
          <mxGeometry relative="1" as="geometry">
            <Array as="points">
              <mxPoint x="1440" y="1310" />
            </Array>
          </mxGeometry>
        </mxCell>
        <mxCell id="HP5ziUZP_K-sw0KjSBvC-163" style="edgeStyle=orthogonalEdgeStyle;rounded=0;orthogonalLoop=1;jettySize=auto;html=1;dashed=1;fontSize=10;startArrow=none;startFill=0;endArrow=open;endFill=0;startSize=0;endSize=15;targetPerimeterSpacing=0;strokeWidth=3;align=left;" parent="1" source="HP5ziUZP_K-sw0KjSBvC-17" edge="1">
          <mxGeometry relative="1" as="geometry">
            <mxPoint x="1320" y="1150" as="targetPoint" />
            <Array as="points">
              <mxPoint x="1440" y="1310" />
              <mxPoint x="1320" y="1310" />
            </Array>
          </mxGeometry>
        </mxCell>
        <mxCell id="HP5ziUZP_K-sw0KjSBvC-164" style="edgeStyle=orthogonalEdgeStyle;rounded=0;orthogonalLoop=1;jettySize=auto;html=1;dashed=1;fontSize=10;startArrow=none;startFill=0;endArrow=open;endFill=0;startSize=0;endSize=15;targetPerimeterSpacing=0;strokeWidth=3;align=left;" parent="1" source="HP5ziUZP_K-sw0KjSBvC-17" target="HP5ziUZP_K-sw0KjSBvC-46" edge="1">
          <mxGeometry relative="1" as="geometry">
            <Array as="points">
              <mxPoint x="1440" y="1310" />
              <mxPoint x="1080" y="1310" />
            </Array>
          </mxGeometry>
        </mxCell>
        <mxCell id="HP5ziUZP_K-sw0KjSBvC-165" style="edgeStyle=orthogonalEdgeStyle;rounded=0;orthogonalLoop=1;jettySize=auto;html=1;dashed=1;fontSize=10;startArrow=none;startFill=0;endArrow=open;endFill=0;startSize=0;endSize=15;targetPerimeterSpacing=0;strokeWidth=3;align=left;" parent="1" source="HP5ziUZP_K-sw0KjSBvC-17" target="HP5ziUZP_K-sw0KjSBvC-13" edge="1">
          <mxGeometry relative="1" as="geometry">
            <Array as="points">
              <mxPoint x="1550" y="1490" />
              <mxPoint x="585" y="1490" />
            </Array>
          </mxGeometry>
        </mxCell>
        <mxCell id="HP5ziUZP_K-sw0KjSBvC-166" style="edgeStyle=orthogonalEdgeStyle;rounded=0;orthogonalLoop=1;jettySize=auto;html=1;dashed=1;fontSize=10;startArrow=none;startFill=0;endArrow=open;endFill=0;startSize=0;endSize=15;targetPerimeterSpacing=0;strokeWidth=3;align=left;" parent="1" source="HP5ziUZP_K-sw0KjSBvC-17" target="HP5ziUZP_K-sw0KjSBvC-6" edge="1">
          <mxGeometry relative="1" as="geometry">
            <Array as="points">
              <mxPoint x="1550" y="1490" />
              <mxPoint x="324" y="1490" />
            </Array>
          </mxGeometry>
        </mxCell>
        <mxCell id="HP5ziUZP_K-sw0KjSBvC-167" style="edgeStyle=orthogonalEdgeStyle;rounded=0;orthogonalLoop=1;jettySize=auto;html=1;dashed=1;fontSize=10;startArrow=none;startFill=0;endArrow=open;endFill=0;startSize=0;endSize=15;targetPerimeterSpacing=0;strokeWidth=3;align=left;" parent="1" source="HP5ziUZP_K-sw0KjSBvC-17" target="HP5ziUZP_K-sw0KjSBvC-34" edge="1">
          <mxGeometry relative="1" as="geometry">
            <Array as="points">
              <mxPoint x="1440" y="1310" />
              <mxPoint x="980" y="1310" />
              <mxPoint x="980" y="1070" />
            </Array>
          </mxGeometry>
        </mxCell>
        <mxCell id="HP5ziUZP_K-sw0KjSBvC-17" value="Game" style="swimlane;fontStyle=1;align=center;verticalAlign=top;childLayout=stackLayout;horizontal=1;startSize=26;horizontalStack=0;resizeParent=1;resizeParentMax=0;resizeLast=0;collapsible=1;marginBottom=0;" parent="1" vertex="1">
          <mxGeometry x="1378.75" y="520" width="230" height="300" as="geometry" />
        </mxCell>
        <mxCell id="HP5ziUZP_K-sw0KjSBvC-18" value="- s_pInstance: Game*&#xa;- m_gameObjects: vector&lt;GameObject*&gt;&#xa;- m_pWindow: SDL_Window*&#xa;- m_pRenderer: SDL_Renderer*&#xa;- m_bRunning: bool&#xa;- map[19][19]: int" style="text;strokeColor=none;fillColor=none;align=left;verticalAlign=top;spacingLeft=4;spacingRight=4;overflow=hidden;rotatable=0;points=[[0,0.5],[1,0.5]];portConstraint=eastwest;" parent="HP5ziUZP_K-sw0KjSBvC-17" vertex="1">
          <mxGeometry y="26" width="230" height="94" as="geometry" />
        </mxCell>
        <mxCell id="HP5ziUZP_K-sw0KjSBvC-19" value="" style="line;strokeWidth=1;fillColor=none;align=left;verticalAlign=middle;spacingTop=-1;spacingLeft=3;spacingRight=3;rotatable=0;labelPosition=right;points=[];portConstraint=eastwest;" parent="HP5ziUZP_K-sw0KjSBvC-17" vertex="1">
          <mxGeometry y="120" width="230" height="8" as="geometry" />
        </mxCell>
        <mxCell id="HP5ziUZP_K-sw0KjSBvC-20" value="- Game()&#xa;+ Instance(): Game*&#xa;+ ~Game()&#xa;+ init(char*, int, int,  int, int, int): bool&#xa;+ render(): void&#xa;+ update(): void&#xa;+ running(): bool&#xa;+ handleEvents(): void&#xa;+ clean(): void&#xa;+ quit(): void&#xa;+ getRenderer(): SDL_Renderer*" style="text;strokeColor=none;fillColor=none;align=left;verticalAlign=top;spacingLeft=4;spacingRight=4;overflow=hidden;rotatable=0;points=[[0,0.5],[1,0.5]];portConstraint=eastwest;" parent="HP5ziUZP_K-sw0KjSBvC-17" vertex="1">
          <mxGeometry y="128" width="230" height="172" as="geometry" />
        </mxCell>
      </root>
    </mxGraphModel>
  </diagram>
</mxfile>
